<?xml version="1.0" encoding="utf-8"?>
<!-- Generator: Adobe Illustrator 16.2.0, SVG Export Plug-In . SVG Version: 6.00 Build 0)  -->
<!DOCTYPE svg PUBLIC "-//W3C//DTD SVG 1.1//EN" "http://www.w3.org/Graphics/SVG/1.1/DTD/svg11.dtd">
<svg version="1.1" xmlns="http://www.w3.org/2000/svg" xmlns:xlink="http://www.w3.org/1999/xlink" x="0px" y="0px" width="576px"
	 height="576px" viewBox="0 0 576 576" enable-background="new 0 0 576 576" xml:space="preserve">
<g id="code-XL" display="none">
	<g display="inline">
		<rect y="0" fill-rule="evenodd" clip-rule="evenodd" fill="#FFFFFF" width="576" height="575.999"/>
		<path fill-rule="evenodd" clip-rule="evenodd" d="M448.265,515.162c0-13.942,0-27.885,0-42.608c-36.413,0-72.41,0-108.41,0
			l0.148,0.156c0-7.686,0-15.371,0-23.609c-7.499,0-14.271,0-21.374,0c0-7.406,0-14.266,0-21.12c6.999,0,13.998,0,21.547,0
			c0-43.484,0-86.333,0-129.57c7.214,0,13.87,0,21.092,0c0-7.875,0-15.374,0-23.104c8.157,0,15.734,0,23.311,0l-0.15-0.151
			c0,7.688,0,15.374,0,23.051c7.504,0,14.264,0,21.377,0c0-7.931,0-15.491,0-23.051l-0.148,0.159c13.935,0,27.868,0,42.162,0
			c0,7.688,0,15.164,0,23.043c-6.692,0-13.343,0-20.425,0c0,7.141,0,13.914,0,21.24c28.521,0,57.209,0,86.511,0
			c0,7.521,0,14.516,0,21.503l0.154-0.14c-6.978,0-13.957,0-21.483,0c0,7.49,0,14.267,0,21.389c-7.397,0-14.249,0-21.101,0
			c0-6.982,0-13.959,0-20.964c-8.048,0-15.51,0-22.902,0c0,7.116,0,13.875,0,20.813c7.942,0,15.499,0,23.054,0
			c0,14.758,0,29.525,0,44.853c7.354,0,14.138,0,21.059,0c0,29.347,0,58.119,0,86.885l0.15-0.139c-6.999,0-13.992,0-21.377,0
			c0,7.641,0,14.5,0,21.365l0.151-0.14c-7.834,0-15.667,0-23.498,0L448.265,515.162z M384.883,385.841c0,21.35,0,42.257,0,63.02
			c21.296,0,42.209,0,63.014,0c0-21.215,0-42,0-63.02C426.827,385.841,406.042,385.841,384.883,385.841z M361.36,341.168
			c7.937,0,15.284,0,23.195,0c0,7.139,0,13.92,0,20.746c14.4,0,28.231,0,42.006,0c0-7.116,0-13.887,0-21.02
			c-7.038,0-13.686,0-20.889,0c0-7.133,0-13.914,0-20.739c-15.108,0-29.643,0-44.313,0
			C361.36,327.136,361.36,333.772,361.36,341.168z"/>
		<path fill-rule="evenodd" clip-rule="evenodd" d="M339.844,79.874c0,6.859,0,13.713,0,21.137c-6.972,0-13.744,0-21.224,0
			c0,15.305,0,30.059,0,44.812l0.156-0.146c-7.121,0.056-14.237,0.11-21.359,0.162c0-21.826,0-43.652,0-65.552
			c-15.098,0-29.637,0-44.124,0c0,7.125,0,13.893,0,21.028c7.038,0,13.688,0,21.125,0c0,15.145,0,29.913-0.005,44.679
			c-7.208-0.065-14.406-0.127-21.608-0.183c0-6.992,0-13.981,0-20.891c-14.456,0-28.292,0-41.927,0c0,21.313,0,42.219,0,62.979
			c7.085,0,13.733,0,20.933,0c0-14.138,0-27.984,0-42.237c7.423,0,14.283,0,21.145,0c0,6.971,0,13.939,0,20.986
			c7.309,0,14.057,0,21.301,0c0-7.146,0-13.969,0-20.794c7.769-0.054,15.541-0.11,23.311-0.166c0,14.053,0,28.101,0,42.705
			c-15.301,0-29.846,0-44.763,0c0,15.186,0,29.817,0,44.451l0.151-0.153c-14.043,0-28.083,0-42.681,0c0-7.314,0-14.087,0-21.212
			c-8.126,0-15.692,0-23.252,0l0.156,0.145c0-36.575,0-73.151,0-110.305c14.78,0,29.339,0,44.193,0c0-14.297,0-28.021,0-42.326
			c-14.431,0-28.992,0-43.914,0c0-14.418,0-28.272,0-42.423c7.423,0,14.779,0,22.722,0c0,6.635,0,13.43,0,20.838
			c14.64,0,28.708,0,42.776,0c0,6.977,0,13.955,0,20.958c7.342,0,14.096,0,20.785,0c0-7.109,0-13.868,0-20.807
			c-7.234,0-14.085,0-20.936,0c0-6.861,0-13.723,0-20.938c29.096,0,57.771,0,87.039,0c0,14.06,0,28.118,0,42.174l0.159-0.148
			c-6.985,0-13.962,0-20.931,0c0,7.504,0,14.26,0,21.376c7.223,0,14.076,0,20.931,0L339.844,79.874z"/>
		<path fill-rule="evenodd" clip-rule="evenodd" d="M558.19,166.731c-50.899,0-101.405,0-152.185,0c0-50.04,0-99.836,0-150.049
			c50.559,0,101.188,0,152.185,0C558.19,66.488,558.19,116.406,558.19,166.731z M534.829,145.52c0-36.216,0-71.988,0-107.598
			c-36.153,0-71.93,0-107.584,0c0,36.075,0,71.724,0,107.598C463.176,145.52,498.824,145.52,534.829,145.52z"/>
		<path fill-rule="evenodd" clip-rule="evenodd" d="M15.403,559.3c0-50.902,0-101.408,0-152.188c50.041,0,99.837,0,150.053,0
			c0,50.556,0,101.185,0,152.188C115.65,559.3,65.728,559.3,15.403,559.3z M144.406,428.432c-36.189,0-71.959,0-107.599,0
			c0,36.15,0,71.928,0,107.609c36.068,0,71.715,0,107.599,0C144.406,500.12,144.406,464.466,144.406,428.432z"/>
		<path fill-rule="evenodd" clip-rule="evenodd" d="M165.626,16.635c0,50.196,0,99.996,0,150.068c-50.04,0-99.836,0-150.05,0
			c0-49.854,0-99.774,0-150.068C65.382,16.635,115.302,16.635,165.626,16.635z M36.813,37.687c0,36.34,0,72.113,0,107.775
			c36.075,0,71.724,0,107.498,0c0-36.061,0-71.83,0-107.775C108.331,37.687,72.685,37.687,36.813,37.687z"/>
		<path fill-rule="evenodd" clip-rule="evenodd" d="M471.45,232.706c0,6.851,0,13.7,0,20.925c-14.71,0-29.229,0-44.308,0
			c0-6.659,0-13.432,0-20.766c-7.513,0-14.492,0-21.472,0c0-6.977,0-13.956,0-20.961c-7.34,0-14.096,0-20.782,0
			c0,7.113,0,13.873,0,20.81c7.233,0,14.084,0,20.933,0c-0.053,14.199-0.109,28.398-0.165,42.6l0.148-0.159
			c-7.125,0-14.252,0-21.377,0l0.15,0.151c0-6.997,0-13.984,0-21.497c-29.447,0-58.124,0-86.685,0c0-7.309,0-14.082,0-21.207
			c14.13,0,27.843,0,41.702,0c0-7.147,0-13.912,0-21.251c-7.097,0-13.876,0-20.819,0c0-22.274,0-43.974,0-65.676l-0.156,0.146
			c6.862,0,13.725,0,21.143,0c0,14.062,0,27.904,0,42.231c44.063,0,87.572,0,131.688,0c0,8.178,0,15.872,0,23.569l0.159-0.145
			c-7.688,0-15.374,0-23.052,0c0,7.504,0,14.266,0,21.374c7.932,0,15.488,0,23.052,0L471.45,232.706z"/>
		<path fill-rule="evenodd" clip-rule="evenodd" d="M231.743,449.207c-14.651,0-29.308,0-44.302,0c0-7.038,0-13.814,0-20.992
			c7.488,0,14.855,0,22.61,0c0-7.166,0-13.937,0-21.31c-7.465,0-14.958,0-22.697,0c0-7.233,0-13.887,0-21.126
			c14.573,0,29.141,0,44.006,0c0-7.937,0-15.298,0-23.252c-6.625,0-13.415,0-20.835,0c0-7.568,0-14.567,0-21.566l-0.154,0.146
			c21.137,0,42.282,0,63.346,0c0-14.612,0-28.467,0-42.704c-7.055,0-13.711,0-20.473,0c0-7.876,0-15.355,0-22.764
			c14.908,0,29.464,0,44.406,0c0,7.764,0,15.131,0,23.059c7.155,0,13.945,0,20.637,0c0,7.365,0,14.138,0,21.293
			c-7.058,0-13.719,0-20.927,0c0,22.021,0,43.648,0,65.209c-8.063,0-15.547,0-23.412,0c0-7.758,0-15.125,0-22.588
			c-7.172,0-13.948,0-20.643,0c0,14.902,0,29.459,0,44.395c7.055,0,13.713,0,20.933,0c0,7.172,0,13.953,0,20.975
			c8.157,0,15.729,0,23.308,0c0,6.994,0,13.998,0,21.231c-15.427,0-30.075,0-44.724,0l0.148,0.151c0-6.982,0-13.965,0-20.925
			c-7.504,0-14.263,0-21.374,0c0,7.217,0,14.07,0,20.925L231.743,449.207z"/>
		<path fill-rule="evenodd" clip-rule="evenodd" d="M100.139,340.95c-28.087,0-56.173,0-84.618,0c0-6.999,0-13.77,0-20.938
			c20.875,0,41.669,0,63.216,0c0-7.339,0-14.318,0.002-21.31c0.006-0.006-0.146,0.173-0.146,0.173c6.879,0,13.758,0,21.212,0
			c0-22.11,0-43.744,0-65.96c8.045,0,15.544,0,23.412,0c0-15.008,0-29.442,0-44.291c14.237,0,28.084,0,42.568,0
			c0,7.582,0,15.293,0,22.998l0.159-0.145c-6.982,0-13.964,0-20.929,0c0,7.504,0,14.266,0,21.374c7.224,0,14.075,0,20.929,0
			l-0.148-0.145c0,7.125,0,14.247,0,21.371l0.148-0.145c-14.051,0-28.1,0-42.149,0c0,7.499,0,14.266,0,21.374
			c14.298,0,28.224,0,42.149,0l-0.159-0.148c0,7.565,0,15.131,0,23.232c-14.034,0-27.862,0-42.45,0c0,7.516,0,14.503,0,21.485
			l0.157-0.142c-7.702,0-15.41,0-23.499,0c0,7.642,0,14.501,0,21.372L100.139,340.95z"/>
		<path fill-rule="evenodd" clip-rule="evenodd" d="M339.854,472.553c0,6.87,0,13.735,0,21.165c22.014,0,43.639,0,65.567,0
			c0,7.199,0,13.847,0,21.08c-6.611,0-13.397,0-20.737,0c0,15.115,0,29.671,0,44.545c-15.123,0-29.671,0-44.486,0
			c0-7.523,0-14.88,0-22.816c6.733,0,13.513,0,20.626,0c0-7.34,0-14.115,0-21.164c-20.944,0-41.729,0-63.101,0
			c0,6.691,0,13.473,0,20.874c-8.263,0-15.968,0-23.668,0l0.146,0.156c0-6.999,0-13.998,0-21.371c-7.644,0-14.512,0-21.377,0
			l0.148,0.14c0-14.199,0-28.398,0-42.603l-0.148,0.15c6.999,0,13.996,0,21.555,0c0,7.412,0,14.199,0,20.857
			c7.94,0,15.298,0,23.227,0c0-7.055,0-13.842,0-20.857c14.518,0,28.457,0,42.396,0L339.854,472.553z"/>
		<path fill-rule="evenodd" clip-rule="evenodd" d="M514.066,232.848c0-14.648,0-29.3,0-44.295c14.805,0,29.361,0,44.208,0
			c0,28.684,0,57.258,0,86.256c-14.456,0-29.013,0-44.208,0c0-6.879,0-13.878,0-20.875l-0.156,0.142c6.979,0,13.962,0,20.931,0
			c0-7.504,0-14.26,0-21.371c-7.223,0-14.076,0-20.931,0L514.066,232.848z"/>
		<path fill-rule="evenodd" clip-rule="evenodd" d="M492.676,515.022c0,14.635,0,29.274,0,44.277c-28.906,0-57.589,0-86.609,0
			c0-7.468,0-14.947,0-22.817c6.779,0,13.432,0,20.654,0c0-7.139,0-13.925,0-21.32c7.552,0,14.548,0,21.544,0l-0.153-0.14
			c0,6.977,0,13.953,0,20.925c8.21,0,15.673,0,23.498,0c0-7.223,0-14.071,0-20.925l-0.151,0.14c7.125,0,14.25,0,21.377,0
			L492.676,515.022z"/>
		<path fill-rule="evenodd" clip-rule="evenodd" d="M535.128,427.992c0,21.689,0,43.384,0,65.637c7.775,0,15.257,0,23.082,0
			c0,7.328,0,14.093,0,21.394c-21.896,0-43.714,0-65.534,0l0.159,0.14c0-7.128,0-14.244,0-21.365l-0.15,0.139
			c6.99,0,13.979,0,21.488,0c0-22.358,0-43.964,0-65.799c7.393,0,14.252,0,21.117,0L535.128,427.992z"/>
		<path fill-rule="evenodd" clip-rule="evenodd" d="M231.743,515.011c-6.859,0-13.722,0-21.128,0c0,14.924,0,29.469,0,44.321
			c-8.018,0-15.491,0-23.241,0c0-21.745,0-43.345,0-65.33c7.577,0,14.933,0,22.848,0c0-7.133,0-13.914,0-21.287
			c7.546,0,14.531,0,21.521,0l-0.145-0.156c0,14.204,0,28.403,0,42.603L231.743,515.011z"/>
		<path fill-rule="evenodd" clip-rule="evenodd" d="M210.526,319.876c0-14.646,0-29.297,0-44.718c-15.182,0-29.961,0-44.741,0
			l0.159,0.148c0-7.125,0-14.252,0-21.374l-0.148,0.145c21.832,0,43.663,0,65.517,0c0,22.189,0,43.8,0,65.657
			c-7.217,0-14.079,0-20.941,0L210.526,319.876z"/>
		<path fill-rule="evenodd" clip-rule="evenodd" d="M57.7,232.837c0-6.868,0-13.73,0-21.151c-14.25,0-28.095,0-42.234,0
			c0-7.906,0-15.262,0-23.05c20.762,0,41.669,0,62.977,0c0,14.343,0,28.885,0,44.047c-6.907,0-13.9,0-20.891,0L57.7,232.837z"/>
		<path fill-rule="evenodd" clip-rule="evenodd" d="M123.335,319.876c13.904,0,27.812,0,42.126,0c0,6.892,0,13.651,0,20.968
			c-6.63,0-13.398,0-20.909,0c0,7.524,0,14.501,0,21.478l0.151-0.15c-14.646,0-29.287,0-44.564,0c0-7.223,0-14.222,0-21.221
			l-0.146,0.156c7.704,0,15.406,0,23.499,0c0-7.641,0-14.512,0-21.372L123.335,319.876z"/>
		<path fill-rule="evenodd" clip-rule="evenodd" d="M78.594,362.628c0,7.736,0,15.087,0,22.711c-21.023,0-41.806,0-63.01,0
			c0-7.384,0-14.857,0-22.711C36.367,362.628,57.275,362.628,78.594,362.628z"/>
		<path fill-rule="evenodd" clip-rule="evenodd" d="M274.056,536.237c0,7.568,0,15.137,0,23.067c-14.065,0-27.898,0-42.313,0
			c0-14.773,0-29.536,0-44.293l-0.145,0.15c7.125,0,14.25,0,21.374,0l-0.148-0.14c0,6.987,0,13.981,0,21.371
			c7.641,0,14.506,0,21.377,0L274.056,536.237z"/>
		<path fill-rule="evenodd" clip-rule="evenodd" d="M513.904,341.1c7.119,0.006,14.247,0.017,21.369,0.022l-0.146-0.15
			c0,21.974,0,43.959,0,65.933l0.162-0.146c-7.002,0-14.001,0-21.231,0c0-22.358,0-44.081,0-65.799L513.904,341.1z"/>
		<path fill-rule="evenodd" clip-rule="evenodd" d="M57.551,232.683c0,6.854,0,13.711,0,21.123c-6.959,0-13.732,0-21.257,0
			c0,7.526,0,14.503,0,21.488l0.152-0.151c-6.858,0-13.717,0-20.929,0c0-14.059,0-27.887,0-42.307c14.081,0,28.13,0,42.183,0
			L57.551,232.683z"/>
		<path fill-rule="evenodd" clip-rule="evenodd" d="M361.55,124.74c7.654,0,15.006,0,22.654,0c0,14.051,0,27.883,0,41.976
			c-7.56,0-14.91,0-22.654,0C361.55,152.902,361.55,139.064,361.55,124.74z"/>
		<path fill-rule="evenodd" clip-rule="evenodd" d="M36.294,275.295c13.9,0,27.798,0,42.31,0c0,7.92,0,15.742-0.005,23.576
			c-0.006,0.005,0.146-0.174,0.141-0.168c-13.902,0.009-27.799,0.009-42.293,0.009c0-8.186,0-15.876,0-23.568L36.294,275.295z"/>
		<path fill-rule="evenodd" clip-rule="evenodd" d="M535.273,341.123c0-13.914,0-27.833,0-42.149c7.638,0,15.108,0,22.934,0
			c0,13.756,0,27.576,0,41.999c-7.696,0-15.391,0-23.079,0L535.273,341.123z"/>
		<path fill-rule="evenodd" clip-rule="evenodd" d="M535.563,536.572c7.797,0,15.143,0,22.741,0c0,7.607,0,14.947,0,22.693
			c-7.435,0-14.911,0-22.741,0C535.563,551.876,535.563,544.402,535.563,536.572z"/>
		<path fill-rule="evenodd" clip-rule="evenodd" d="M361.388,37.117c0-7.01,0-13.646,0-20.566c7.571,0,14.916,0,22.691,0
			c0,6.645,0,13.409,0,20.566C376.765,37.117,369.294,37.117,361.388,37.117z"/>
		<path fill-rule="evenodd" clip-rule="evenodd" d="M361.095,80.032c7.552,0,15.098,0,23.026,0c0,6.929,0,13.68,0,20.79
			c-7.398,0-14.858,0-22.878,0c0-6.991,0-13.965,0-20.94L361.095,80.032z"/>
		<path fill-rule="evenodd" clip-rule="evenodd" d="M492.536,275.618c0,7.686,0,15.031,0,22.667c-6.856,0-13.495,0-20.57,0
			c0-7.323,0-14.797,0-22.667C478.541,275.618,485.306,275.618,492.536,275.618z"/>
		<path fill-rule="evenodd" clip-rule="evenodd" d="M210.526,340.961c-7.56,0-15.12,0-23.057,0c0-6.965,0-13.729,0-21.085
			c7.677,0,15.368,0,23.057,0l-0.154-0.142c0,7.123,0,14.25,0,21.372L210.526,340.961z"/>
		<path fill-rule="evenodd" clip-rule="evenodd" d="M144.552,362.321c6.847,0,13.698,0,20.932,0c0,7.657,0,15.12,0,22.934
			c-6.689,0-13.445,0-20.781,0c0-7.713,0-15.398,0-23.084L144.552,362.321z"/>
		<path fill-rule="evenodd" clip-rule="evenodd" d="M535.128,406.905c7.565,0,15.126,0,23.06,0c0,6.972,0,13.725,0,21.087
			c-7.677,0-15.365,0-23.06,0l0.162,0.145c0-7.127,0-14.249,0-21.377L535.128,406.905z"/>
		<path fill-rule="evenodd" clip-rule="evenodd" d="M231.743,472.716c0-7.831,0-15.673,0-23.509l-0.145,0.156
			c7.125,0,14.25,0,21.374,0l-0.148-0.151c0,7.842,0,15.673,0,23.498l0.148-0.15c-7.125,0-14.25,0-21.374,0L231.743,472.716z"/>
		<path fill-rule="evenodd" clip-rule="evenodd" d="M493.005,232.485c-7.186,0.076-14.369,0.146-21.555,0.221l0.159,0.145
			c0-7.125,0-14.249,0-21.374l-0.159,0.145c6.843,0,13.688,0,21.413,0c0,7.119,0,14.071-0.006,21.031
			C492.852,232.658,493.005,232.485,493.005,232.485z"/>
		<path fill-rule="evenodd" clip-rule="evenodd" d="M165.785,211.622c7.133,0,14.263,0,21.394,0l-0.156-0.145
			c0,6.999,0,13.989,0,21.229c-7.493,0-14.361,0-21.226,0l0.148,0.145c0-7.125,0-14.249,0-21.374L165.785,211.622z"/>
		<path fill-rule="evenodd" clip-rule="evenodd" d="M361.243,79.882c-7.128,0-14.261-0.004-21.399-0.008l0.159,0.147
			c0-7.127,0-14.252,0-21.376l-0.159,0.148c6.87,0,13.738,0,21.251,0c0,7.243,0,14.241,0,21.24L361.243,79.882z"/>
		<path fill-rule="evenodd" clip-rule="evenodd" d="M514.066,253.935c-6.834,0-13.66,0-21.072,0c0-7.234,0-14.336,0.009-21.45
			c0.002,0-0.151,0.173-0.146,0.168c7.077,0.061,14.141,0.128,21.209,0.195l-0.156-0.143c0,7.125,0,14.247,0,21.371L514.066,253.935
			z"/>
		<path fill-rule="evenodd" clip-rule="evenodd" fill="#FFFFFF" d="M165.796,232.706c6.865,0,13.733,0,21.226,0
			c0-7.239,0-14.229,0-21.229c7.56,0,15.125,0,23.252,0c0,7.125,0,13.897,0,21.212c14.598,0,28.638,0,42.681,0
			c0,6.979,0,13.956,0,20.958c7.342,0,14.093,0,20.785,0c0-7.111,0-13.87,0-20.805c-7.234,0-14.085,0-20.936,0
			c0-14.634,0-29.266,0-44.451c14.917,0,29.461,0,44.763,0c0-14.604,0-28.652,0-42.705l-0.15,0.151
			c7.122-0.052,14.238-0.106,21.359-0.162c0,21.702,0,43.402,0,65.676c6.943,0,13.723,0,20.819,0c0,7.34,0,14.104,0,21.251
			c-13.859,0-27.572,0-41.702,0c0,7.125,0,13.897,0,21.207c28.561,0,57.237,0,86.685,0c0,7.512,0,14.5,0,21.497
			c-7.576,0-15.153,0-23.311,0c0,7.73,0,15.229,0,23.104c-7.222,0-13.878,0-21.092,0c0,43.237,0,86.086,0,129.57
			c-7.549,0-14.548,0-21.547,0l0.147,0.156c0-6.977,0-13.959,0-20.93c-7.504,0-14.266,0-21.374,0c0,7.222,0,14.076,0,20.93
			l0.146-0.156c-7.579,0-15.15,0-23.308,0c0-7.021,0-13.803,0-20.975c-7.22,0-13.878,0-20.933,0c0-14.936,0-29.492,0-44.395
			c6.695,0,13.471,0,20.643,0c0,7.463,0,14.83,0,22.588c7.864,0,15.349,0,23.412,0c0-21.561,0-43.188,0-65.209
			c7.208,0,13.869,0,20.927,0c0-7.155,0-13.928,0-21.293c-6.691,0-13.481,0-20.637,0c0-7.928,0-15.295,0-23.059
			c-14.941,0-29.498,0-44.406,0c0,7.409,0,14.888,0,22.764c6.762,0,13.417,0,20.473,0c0,14.237,0,28.092,0,42.704
			c-21.064,0-42.209,0-63.346,0c0-7.122,0-14.249,0-21.372c6.862,0,13.725,0,20.941,0c0-21.857,0-43.468,0-65.657
			c-21.854,0-43.686,0-65.517,0C165.796,246.952,165.796,239.831,165.796,232.706z"/>
		<path fill-rule="evenodd" clip-rule="evenodd" fill="#FFFFFF" d="M535.29,406.76c0,7.128,0,14.25,0,21.377
			c-6.865,0-13.725,0-21.117,0c0,21.835,0,43.44,0,65.799c-7.51,0-14.498,0-21.488,0c0-28.766,0-57.538,0-86.885
			c-6.921,0-13.705,0-21.059,0c0-15.327,0-30.095,0-44.853l-0.151,0.151c6.852,0,13.703,0,21.101,0c0-7.122,0-13.898,0-21.389
			c7.526,0,14.506,0,21.483,0c0,21.718,0,43.44,0,65.799C521.289,406.76,528.288,406.76,535.29,406.76z"/>
		<path fill-rule="evenodd" clip-rule="evenodd" fill="#FFFFFF" d="M384.883,385.841c21.159,0,41.944,0,63.014,0
			c0,21.02,0,41.805,0,63.02c-20.805,0-41.718,0-63.014,0C384.883,428.097,384.883,407.19,384.883,385.841z M426.854,407.168
			c-7.239,0-14.004,0-20.746,0c0,7.104,0,13.869,0,20.467c7.158,0,13.923,0,20.746,0
			C426.854,420.691,426.854,414.183,426.854,407.168z"/>
		<path fill-rule="evenodd" clip-rule="evenodd" fill="#FFFFFF" d="M252.824,472.71c0-7.825,0-15.656,0-23.498
			c14.648,0,29.297,0,44.724,0c0-7.233,0-14.237,0-21.231l-0.146,0.156c7.122,0,14.253,0,21.374,0l-0.147-0.156
			c0,6.854,0,13.714,0,21.12c7.103,0,13.875,0,21.374,0c0,8.238,0,15.924,0,23.609c-13.939,0-27.879,0-42.396,0
			c0,7.016,0,13.803,0,20.857c-7.929,0-15.287,0-23.227,0c0-6.658,0-13.445,0-20.857C266.82,472.71,259.823,472.71,252.824,472.71z"
			/>
		<path fill-rule="evenodd" clip-rule="evenodd" fill="#FFFFFF" d="M361.36,341.168c0-7.396,0-14.031,0-21.013
			c14.67,0,29.204,0,44.313,0c0,6.825,0,13.606,0,20.739c7.203,0,13.851,0,20.889,0c0,7.133,0,13.903,0,21.02
			c-13.774,0-27.605,0-42.006,0c0-6.826,0-13.607,0-20.746C376.645,341.168,369.297,341.168,361.36,341.168z"/>
		<path fill-rule="evenodd" clip-rule="evenodd" fill="#FFFFFF" d="M384.428,275.155c7.125,0,14.252,0,21.377,0
			c0,7.56,0,15.12,0,23.051c-7.113,0-13.873,0-21.377,0C384.428,290.529,384.428,282.844,384.428,275.155z"/>
		<path fill-rule="evenodd" clip-rule="evenodd" fill="#FFFFFF" d="M471.626,362.198c-7.555,0-15.111,0-23.054,0
			c0-6.938,0-13.696,0-20.813c7.393,0,14.854,0,22.902,0c0,7.005,0,13.981,0,20.964L471.626,362.198z"/>
		<path fill-rule="evenodd" clip-rule="evenodd" fill="#FFFFFF" d="M471.609,515.022c0,6.854,0,13.702,0,20.925
			c-7.825,0-15.288,0-23.498,0c0-6.972,0-13.948,0-20.925C455.942,515.022,463.775,515.022,471.609,515.022z"/>
		<path fill-rule="evenodd" clip-rule="evenodd" fill="#FFFFFF" d="M492.835,493.797c0,7.121,0,14.237,0,21.365
			c-7.127,0-14.252,0-21.377,0c0-6.865,0-13.725,0-21.365C478.843,493.797,485.836,493.797,492.835,493.797z"/>
		<path fill-rule="evenodd" clip-rule="evenodd" fill="#FFFFFF" d="M297.567,145.686c-7.77,0.056-15.542,0.112-23.319,0.166
			c-0.003-0.01,0.17,0.141,0.17,0.141c0-14.767,0-29.535,0-44.68c-7.437,0-14.087,0-21.125,0c0-7.136,0-13.903,0-21.028
			c14.487,0,29.026,0,44.124,0c0,21.9,0,43.726,0,65.552L297.567,145.686z"/>
		<path fill-rule="evenodd" clip-rule="evenodd" fill="#FFFFFF" d="M252.956,145.66c-6.862,0-13.722,0-21.145,0
			c0,14.253,0,28.1,0,42.237c-7.2,0-13.848,0-20.933,0c0-20.76,0-41.667,0-62.979c13.635,0,27.472,0,41.927,0
			c0,6.91,0,13.899,0,20.891L252.956,145.66z"/>
		<path fill-rule="evenodd" clip-rule="evenodd" fill="#FFFFFF" d="M340.003,58.645c0,7.125,0,14.25,0,21.376
			c-6.854,0-13.708,0-20.931,0c0-7.116,0-13.872,0-21.376C326.041,58.645,333.018,58.645,340.003,58.645z"/>
		<path fill-rule="evenodd" clip-rule="evenodd" fill="#FFFFFF" d="M252.805,37.557c6.851,0,13.702,0,20.936,0
			c0,6.939,0,13.698,0,20.807c-6.689,0-13.443,0-20.785,0c0-7.003,0-13.981,0-20.958L252.805,37.557z"/>
		<path fill-rule="evenodd" clip-rule="evenodd" fill="#FFFFFF" d="M252.805,145.809c7.203,0.056,14.4,0.117,21.608,0.183
			c0.005,0.001-0.167-0.149-0.165-0.14c0.008,6.825,0.008,13.648,0.008,20.794c-7.245,0-13.993,0-21.301,0
			c0-7.047,0-14.015,0-20.986L252.805,145.809z"/>
		<path fill-rule="evenodd" clip-rule="evenodd" fill="#FFFFFF" d="M534.829,145.52c-36.005,0-71.653,0-107.584,0
			c0-35.874,0-71.522,0-107.598c35.654,0,71.431,0,107.584,0C534.829,73.532,534.829,109.304,534.829,145.52z M513.748,59.095
			c-22.043,0-43.663,0-65.143,0c0,21.996,0,43.62,0,65.145c21.918,0,43.412,0,65.143,0
			C513.748,102.464,513.748,80.969,513.748,59.095z"/>
		<path fill-rule="evenodd" clip-rule="evenodd" fill="#FFFFFF" d="M144.406,428.432c0,36.033,0,71.688,0,107.609
			c-35.884,0-71.531,0-107.599,0c0-35.682,0-71.459,0-107.609C72.446,428.432,108.216,428.432,144.406,428.432z M57.862,514.726
			c22.004,0,43.625,0,65.145,0c0-21.985,0-43.607,0-65.168c-21.907,0-43.401,0-65.145,0
			C57.862,471.314,57.862,492.819,57.862,514.726z"/>
		<path fill-rule="evenodd" clip-rule="evenodd" fill="#FFFFFF" d="M36.813,37.687c35.872,0,71.517,0,107.498,0
			c0,35.945,0,71.714,0,107.775c-35.774,0-71.422,0-107.498,0C36.813,109.8,36.813,74.027,36.813,37.687z M123.039,124.289
			c0-22.049,0-43.673,0-65.146c-22.003,0-43.624,0-65.142,0c0,21.924,0,43.417,0,65.146
			C79.676,124.289,101.172,124.289,123.039,124.289z"/>
		<path fill-rule="evenodd" clip-rule="evenodd" fill="#FFFFFF" d="M471.609,211.477c0,7.125,0,14.249,0,21.374
			c-7.563,0-15.12,0-23.052,0c0-7.108,0-13.87,0-21.374C456.235,211.477,463.921,211.477,471.609,211.477z"/>
		<path fill-rule="evenodd" clip-rule="evenodd" fill="#FFFFFF" d="M405.821,232.714c-6.849,0-13.699,0-20.933,0
			c0-6.938,0-13.697,0-20.81c6.687,0,13.442,0,20.782,0c0,7.005,0,13.984,0,20.961L405.821,232.714z"/>
		<path fill-rule="evenodd" clip-rule="evenodd" fill="#FFFFFF" d="M252.972,449.363c-7.125,0-14.25,0-21.374,0
			c0-6.854,0-13.708,0-20.925c7.111,0,13.87,0,21.374,0C252.972,435.398,252.972,442.381,252.972,449.363z"/>
		<path fill-rule="evenodd" clip-rule="evenodd" fill="#FFFFFF" d="M165.944,253.932c0,7.122,0,14.25,0,21.374
			c-13.925,0-27.851,0-42.149,0c0-7.108,0-13.875,0-21.374C137.845,253.932,151.893,253.932,165.944,253.932z"/>
		<path fill-rule="evenodd" clip-rule="evenodd" fill="#FFFFFF" d="M123.492,319.734c0,6.86,0,13.731,0,21.372
			c-8.093,0-15.795,0-23.499,0c0-6.871,0-13.73,0-21.372C108.082,319.734,115.79,319.734,123.492,319.734z"/>
		<path fill-rule="evenodd" clip-rule="evenodd" fill="#FFFFFF" d="M165.944,211.477c0,7.125,0,14.249,0,21.374
			c-6.854,0-13.705,0-20.929,0c0-7.108,0-13.87,0-21.374C151.98,211.477,158.962,211.477,165.944,211.477z"/>
		<path fill-rule="evenodd" clip-rule="evenodd" fill="#FFFFFF" d="M231.598,472.559c7.125,0,14.25,0,21.374,0
			c0,14.204,0,28.403,0,42.603c-7.125,0-14.25,0-21.374,0C231.598,500.963,231.598,486.763,231.598,472.559z"/>
		<path fill-rule="evenodd" clip-rule="evenodd" fill="#FFFFFF" d="M274.201,536.393c-6.871,0-13.736,0-21.377,0
			c0-7.39,0-14.384,0-21.371c6.865,0,13.733,0,21.377,0C274.201,522.395,274.201,529.394,274.201,536.393z"/>
		<path fill-rule="evenodd" clip-rule="evenodd" fill="#FFFFFF" d="M513.91,254.077c0-7.125,0-14.246,0-21.371
			c6.854,0,13.708,0,20.931,0c0,7.111,0,13.867,0,21.371C527.872,254.077,520.89,254.077,513.91,254.077z"/>
		<path fill-rule="evenodd" clip-rule="evenodd" d="M252.805,232.843c6.851,0,13.702,0,20.936,0c0,6.935,0,13.694,0,20.805
			c-6.692,0-13.443,0-20.785,0c0-7.002,0-13.979,0-20.958L252.805,232.843z"/>
		<path fill-rule="evenodd" clip-rule="evenodd" d="M318.776,428.136c-7.121,0-14.252,0-21.374,0c0-6.854,0-13.708,0-20.93
			c7.108,0,13.87,0,21.374,0C318.776,414.177,318.776,421.16,318.776,428.136z"/>
		<path fill-rule="evenodd" clip-rule="evenodd" d="M426.854,407.168c0,7.016,0,13.523,0,20.467c-6.823,0-13.588,0-20.746,0
			c0-6.598,0-13.362,0-20.467C412.851,407.168,419.615,407.168,426.854,407.168z"/>
		<path fill-rule="evenodd" clip-rule="evenodd" d="M513.748,59.095c0,21.874,0,43.369,0,65.145c-21.73,0-43.225,0-65.143,0
			c0-21.524,0-43.148,0-65.145C470.085,59.095,491.705,59.095,513.748,59.095z"/>
		<path fill-rule="evenodd" clip-rule="evenodd" d="M57.862,514.726c0-21.907,0-43.412,0-65.168c21.744,0,43.237,0,65.145,0
			c0,21.561,0,43.183,0,65.168C101.488,514.726,79.867,514.726,57.862,514.726z"/>
		<path fill-rule="evenodd" clip-rule="evenodd" d="M123.039,124.289c-21.867,0-43.363,0-65.142,0c0-21.729,0-43.222,0-65.146
			c21.518,0,43.139,0,65.142,0C123.039,80.616,123.039,102.24,123.039,124.289z"/>
	</g>
</g>
<g id="web" xmlns:osb="http://www.openswatchbook.org/uri/2009/osb" xmlns:dc="http://purl.org/dc/elements/1.1/" xmlns:cc="http://creativecommons.org/ns#" xmlns:rdf="http://www.w3.org/1999/02/22-rdf-syntax-ns#" xmlns:svg="http://www.w3.org/2000/svg" xmlns:sodipodi="http://sodipodi.sourceforge.net/DTD/sodipodi-0.dtd" xmlns:inkscape="http://www.inkscape.org/namespaces/inkscape" inkscape:version="0.91 r13725" inkscape:export-xdpi="80" inkscape:export-filename="/home/mvb/git/lWS/app/icons/lws_ic.png" inkscape:export-ydpi="80" sodipodi:docname="lws_ic.svg">
	
		<sodipodi:namedview  inkscape:zoom="0.70710678" bordercolor="#666666" borderopacity="1.0" pagecolor="#ffffff" showgrid="false" showguides="true" inkscape:cy="317.03356" inkscape:cx="244.78841" id="base" inkscape:window-y="0" inkscape:window-width="1680" inkscape:window-height="995" inkscape:pageopacity="0.0" inkscape:window-maximized="1" inkscape:current-layer="layer3" inkscape:guide-bbox="true" inkscape:pageshadow="2" inkscape:document-units="px" inkscape:window-x="0">
		<sodipodi:guide  position="552,574.7768" orientation="1,0" id="guide2985"></sodipodi:guide>
		<sodipodi:guide  position="24,307.08637" orientation="1,0" id="guide2987"></sodipodi:guide>
		<sodipodi:guide  position="16.162441,24" orientation="0,1" id="guide2989"></sodipodi:guide>
		<sodipodi:guide  position="78.791899,552" orientation="0,1" id="guide2991"></sodipodi:guide>
		<sodipodi:guide  position="243.24473,284.25692" orientation="0,1" id="guide3793"></sodipodi:guide>
		<sodipodi:guide  position="288,301.93459" orientation="1,0" id="guide3795"></sodipodi:guide>
	</sodipodi:namedview>
	<g id="layer1" inkscape:label="Frame" inkscape:groupmode="layer" display="none">
		
			<path id="rect8150" display="inline" fill="#8ABFE7" stroke="#000000" stroke-width="2.7829" stroke-linecap="square" stroke-linejoin="round" stroke-miterlimit="10" d="
			M84.392,60.391h407.217c13.255,0,24,10.745,24,24v407.218c0,13.255-10.745,24-24,24H84.392c-13.255,0-24-10.745-24-24V84.391
			C60.392,71.136,71.137,60.391,84.392,60.391z"/>
	</g>
	<g id="layer3" inkscape:label="Web" inkscape:groupmode="layer">
		<g id="g10122" transform="translate(-2.6537,-1.139846)">
			<g id="g9532">
				
					<path id="path9534" inkscape:connector-curvature="0" fill="none" stroke="#626261" stroke-width="20" stroke-linecap="round" stroke-linejoin="round" d="
					M262.148,234.01l71.334-26.303l22.676,71.403l-33.938,58.251l-67.707,0.668l-56.192-58.919l33.791-90.195l133.284-26.31
					l63.723,116.503L356.16,395.607l-133.434,0.704l-97.615-117.204l78.841-142.81l178.338-11.272l103.25,154.082L402.945,470.77
					c0,0-161.446-7.52-232.781,33.819C140.126,401.244,76.303,307.96,31.25,273.802c82.598-101.799,120.249-150.654,120.249-220.181
					c106.702,33.825,258.961-9.207,260.831,0c16.792,82.678,146.426,225.486,146.426,225.486H21.86"/>
				
					<line id="line9536" fill="none" stroke="#626261" stroke-width="20" stroke-linecap="round" stroke-linejoin="round" x1="424.146" y1="46.82" x2="124.868" y2="560.7"/>
				
					<line id="line9538" fill="none" stroke="#626261" stroke-width="20" stroke-linecap="round" stroke-linejoin="round" x1="132.363" y1="18.771" x2="440.424" y2="540.093"/>
			</g>
			<g id="g9540">
				
					<path id="path9542" inkscape:connector-curvature="0" fill="none" stroke="#FEFEFE" stroke-width="14" stroke-linecap="round" stroke-linejoin="round" d="
					M261.149,232.009l71.333-26.303l22.676,71.403L321.22,335.36l-67.706,0.668l-56.193-58.919l33.791-90.195l133.284-26.31
					l63.723,116.503L355.16,393.606l-133.433,0.705l-97.615-117.205l78.841-142.81l178.339-11.272l103.249,154.082L401.945,468.77
					c0,0-161.446-7.521-232.781,33.819C139.126,399.243,75.303,305.96,30.25,271.802c82.598-101.8,120.249-150.655,120.249-220.182
					c106.702,33.825,258.959-9.207,260.831,0c16.792,82.678,146.426,225.486,146.426,225.486H20.861"/>
				
					<line id="line9544" fill="none" stroke="#FEFEFE" stroke-width="14" stroke-linecap="round" stroke-linejoin="round" x1="423.146" y1="44.819" x2="123.868" y2="558.7"/>
				
					<line id="line9546" fill="none" stroke="#FEFEFE" stroke-width="14" stroke-linecap="round" stroke-linejoin="round" x1="131.363" y1="16.77" x2="439.424" y2="538.091"/>
			</g>
		</g>
	</g>
	<g id="layer4" inkscape:label="Alpha" inkscape:groupmode="layer" display="none">
		
			<text transform="matrix(1.0272 0 0 1 347.8721 544.823)" display="inline" fill="#FF0100" font-family="'ArialMT'" font-size="315.0769">α</text>
	</g>
	<g id="layer5" inkscape:label="Betta" inkscape:groupmode="layer" display="none">
		<g id="g4973" transform="translate(111.15,58.4)" display="inline">
			<path id="path4975" inkscape:connector-curvature="0" fill="#00D91B" d="M340.1,411.2v83.4H317V277.2c0-17.3,2-30.9,5.899-40.7
				c3.9-9.8,10.601-17.9,20.2-24.3c9.5-6.4,20.1-9.601,31.8-9.601c17.3,0,30.3,5.9,39.2,17.801c8.9,11.8,13.3,24.8,13.3,38.8
				c0,13.7-3.6,24.8-10.8,33.2c-7.2,8.399-15.4,13.6-24.7,15.5c14.9,1.7,26.5,8.2,34.601,19.2C434.6,338.2,438.7,351.8,438.7,368
				c0,17.4-4.8,33-14.399,46.8c-9.601,13.801-23.4,20.7-41.5,20.7C364.3,435.601,350.1,427.5,340.1,411.2L340.1,411.2z
				 M360.6,299.101c15.8,0,27.3-3.301,34.5-9.801c7.2-6.6,10.8-16,10.8-28.5c0-10-3.1-18.5-9.2-25.2c-6.1-6.8-13.8-10.199-23-10.199
				c-8,0-14.899,2.5-20.8,7.5c-5.899,5-9.5,10.6-10.8,16.8s-2,16.9-2,32.3v62c0,17.601,1,30.601,3.1,38.9
				c2.101,8.3,6.5,15.8,13.301,22.5c6.8,6.7,14.6,10,23.399,10c10.7,0,19.2-4.4,25.4-13.2s9.3-19.6,9.3-32.5
				c0-10.7-2.3-20.2-6.9-28.7c-4.6-8.5-10.3-14.2-17-17.2c-6.699-3-15.699-4.5-26.899-4.5h-3.3v-20.2L360.6,299.101L360.6,299.101z"
				/>
		</g>
	</g>
	<g id="layer7" inkscape:label="Shortcut" inkscape:groupmode="layer" display="none">
		
			<g id="g4239" transform="matrix(1.0000019,0,0,0.99997525,21.999996,-382.98577)" inkscape:export-xdpi="80" inkscape:export-filename="/home/mvb/tmp/omn_u.png" inkscape:export-ydpi="80" display="inline">
			
				<rect id="rect102" x="8.001" y="413.1" fill="#FFFFFF" stroke="#A0A0A0" stroke-width="12" stroke-miterlimit="10" width="155.9" height="155.899"/>
			<path id="path104" inkscape:connector-curvature="0" fill="#3760E2" d="M84.701,546.1c0,0-22.9-8.499,8.5-42.3l8.5-8.5
				l25.4,27.201v-78h-67.7l18.6,23.799l-27.1,27.1c0,0-10.5,13,8.5,33.8C74.901,546.2,84.701,546.1,84.701,546.1L84.701,546.1
				L84.701,546.1z"/>
		</g>
	</g>
	<g id="layer2" inkscape:label="new_grid" inkscape:groupmode="layer" display="none">
		
			<path id="rect3070" inkscape:connector-curvature="0" display="inline" fill-opacity="0" stroke="#000000" stroke-width="0.9978" d="
			M108.468,24.499h359.064c6.607,0,11.969,5.36,11.969,11.978v503.048c0,6.615-5.358,11.979-11.969,11.979H108.468
			c-6.61,0-11.969-5.362-11.969-11.979V36.477C96.499,29.862,101.857,24.499,108.468,24.499L108.468,24.499z"/>
		
			<path id="rect3840" inkscape:connector-curvature="0" display="inline" fill-opacity="0" stroke="#000000" stroke-width="0.9978" d="
			M36.476,96.499h503.047c6.612,0,11.978,5.356,11.978,11.97v359.063c0,6.609-5.362,11.971-11.978,11.971H36.476
			c-6.615,0-11.977-5.358-11.977-11.971V108.469C24.499,101.858,29.861,96.499,36.476,96.499L36.476,96.499z"/>
		<path id="rect3842" inkscape:connector-curvature="0" display="inline" d="M72.473,60C65.571,60,60,65.572,60,72.474v431.055
			c0,6.9,5.571,12.474,12.473,12.474h431.055c6.898,0,12.473-5.57,12.473-12.474V72.474C516,65.572,510.429,60,503.527,60H72.473z
			 M72.473,60.998h431.055c6.362,0,11.475,5.106,11.475,11.476v431.055c0,6.365-5.109,11.478-11.475,11.478H72.473
			c-6.366,0-11.475-5.109-11.475-11.478V72.474C60.998,66.107,66.107,60.998,72.473,60.998L72.473,60.998z"/>
		
			<circle id="path3844" display="inline" fill-opacity="0" stroke="#000000" stroke-width="0.3118" stroke-miterlimit="10" cx="288" cy="288" r="263.498"/>
	</g>
</g>
<g id="code-S">
	<g>
		<rect x="164.933" y="158.789" fill-rule="evenodd" clip-rule="evenodd" fill="#FFFFFF" width="247.174" height="247.172"/>
		<path fill-rule="evenodd" clip-rule="evenodd" d="M357.293,379.855c0-5.983,0-11.966,0-18.284c-15.628,0-31.073,0-46.521,0
			l0.064,0.066c0-3.298,0-6.597,0-10.131c-3.219,0-6.125,0-9.172,0c0-3.179,0-6.122,0-9.063c3.002,0,6.006,0,9.244,0
			c0-18.659,0-37.049,0-55.602c3.098,0,5.953,0,9.053,0c0-3.379,0-6.597,0-9.915c3.499,0,6.751,0,10.002,0l-0.064-0.064
			c0,3.3,0,6.598,0,9.893c3.221,0,6.122,0,9.174,0c0-3.404,0-6.647,0-9.893l-0.064,0.068c5.98,0,11.959,0,18.094,0
			c0,3.3,0,6.507,0,9.889c-2.874,0-5.728,0-8.765,0c0,3.063,0,5.971,0,9.115c12.236,0,24.548,0,37.123,0c0,3.227,0,6.229,0,9.227
			l0.066-0.06c-2.995,0-5.99,0-9.219,0c0,3.214,0,6.122,0,9.178c-3.175,0-6.115,0-9.056,0c0-2.995,0-5.991,0-8.996
			c-3.452,0-6.656,0-9.828,0c0,3.055,0,5.953,0,8.931c3.408,0,6.651,0,9.893,0c0,6.334,0,12.67,0,19.249c3.157,0,6.067,0,9.038,0
			c0,12.592,0,24.938,0,37.281l0.064-0.06c-3.005,0-6.006,0-9.175,0c0,3.281,0,6.225,0,9.17l0.064-0.06c-3.36,0-6.723,0-10.083,0
			L357.293,379.855z M330.094,324.361c0,9.162,0,18.133,0,27.042c9.138,0,18.113,0,27.04,0c0-9.103,0-18.021,0-27.042
			C348.093,324.361,339.175,324.361,330.094,324.361z M320,305.189c3.405,0,6.558,0,9.952,0c0,3.065,0,5.976,0,8.904
			c6.18,0,12.115,0,18.026,0c0-3.055,0-5.958,0-9.021c-3.02,0-5.873,0-8.963,0c0-3.06,0-5.971,0-8.899c-6.485,0-12.722,0-19.016,0
			C320,299.17,320,302.018,320,305.189z"/>
		<path fill-rule="evenodd" clip-rule="evenodd" d="M310.767,193.064c0,2.944,0,5.885,0,9.07c-2.993,0-5.899,0-9.107,0
			c0,6.568,0,12.899,0,19.229l0.067-0.062c-3.057,0.023-6.109,0.047-9.166,0.069c0-9.367,0-18.732,0-28.131
			c-6.479,0-12.718,0-18.935,0c0,3.059,0,5.962,0,9.024c3.02,0,5.874,0,9.065,0c0,6.499,0,12.837-0.002,19.172
			c-3.092-0.028-6.182-0.055-9.271-0.078c0-3,0-6,0-8.965c-6.204,0-12.141,0-17.993,0c0,9.146,0,18.117,0,27.026
			c3.041,0,5.894,0,8.983,0c0-6.067,0-12.008,0-18.125c3.185,0,6.128,0,9.074,0c0,2.992,0,5.982,0,9.005c3.136,0,6.032,0,9.14,0
			c0-3.066,0-5.994,0-8.922c3.334-0.023,6.67-0.047,10.004-0.072c0,6.03,0,12.059,0,18.325c-6.566,0-12.808,0-19.208,0
			c0,6.517,0,12.796,0,19.076l0.064-0.066c-6.026,0-12.052,0-18.315,0c0-3.139,0-6.045,0-9.103c-3.487,0-6.734,0-9.978,0
			l0.067,0.063c0-15.695,0-31.391,0-47.334c6.342,0,12.59,0,18.964,0c0-6.135,0-12.025,0-18.163c-6.191,0-12.44,0-18.845,0
			c0-6.187,0-12.132,0-18.204c3.187,0,6.343,0,9.751,0c0,2.846,0,5.763,0,8.941c6.282,0,12.319,0,18.356,0c0,2.994,0,5.989,0,8.995
			c3.15,0,6.048,0,8.919,0c0-3.051,0-5.952,0-8.93c-3.104,0-6.044,0-8.983,0c0-2.943,0-5.889,0-8.984c12.485,0,24.789,0,37.35,0
			c0,6.033,0,12.065,0,18.098l0.069-0.063c-2.998,0-5.993,0-8.983,0c0,3.22,0,6.119,0,9.172c3.1,0,6.04,0,8.983,0L310.767,193.064z"
			/>
		<path fill-rule="evenodd" clip-rule="evenodd" d="M404.464,230.337c-21.843,0-43.516,0-65.307,0c0-21.474,0-42.842,0-64.39
			c21.697,0,43.421,0,65.307,0C404.464,187.321,404.464,208.742,404.464,230.337z M394.438,221.235c0-15.542,0-30.892,0-46.172
			c-15.513,0-30.866,0-46.165,0c0,15.48,0,30.779,0,46.172C363.69,221.235,378.987,221.235,394.438,221.235z"/>
		<path fill-rule="evenodd" clip-rule="evenodd" d="M171.543,398.796c0-21.844,0-43.516,0-65.308c21.474,0,42.842,0,64.391,0
			c0,21.694,0,43.422,0,65.308C214.561,398.796,193.138,398.796,171.543,398.796z M226.899,342.638c-15.529,0-30.879,0-46.172,0
			c0,15.514,0,30.867,0,46.179c15.478,0,30.773,0,46.172,0C226.899,373.4,226.899,358.102,226.899,342.638z"/>
		<path fill-rule="evenodd" clip-rule="evenodd" d="M236.006,165.928c0,21.54,0,42.91,0,64.397c-21.472,0-42.841,0-64.39,0
			c0-21.394,0-42.815,0-64.397C192.989,165.928,214.411,165.928,236.006,165.928z M180.73,174.961c0,15.595,0,30.945,0,46.249
			c15.48,0,30.778,0,46.13,0c0-15.475,0-30.823,0-46.249C211.419,174.961,196.124,174.961,180.73,174.961z"/>
		<path fill-rule="evenodd" clip-rule="evenodd" d="M367.242,258.648c0,2.939,0,5.879,0,8.979c-6.313,0-12.543,0-19.015,0
			c0-2.857,0-5.764,0-8.91c-3.224,0-6.22,0-9.212,0c0-2.994,0-5.989,0-8.996c-3.152,0-6.051,0-8.919,0c0,3.053,0,5.954,0,8.93
			c3.104,0,6.043,0,8.983,0c-0.024,6.093-0.047,12.187-0.072,18.281l0.064-0.068c-3.057,0-6.117,0-9.174,0l0.064,0.064
			c0-3.001,0-6,0-9.225c-12.637,0-24.941,0-37.198,0c0-3.137,0-6.042,0-9.1c6.063,0,11.949,0,17.896,0c0-3.067,0-5.969,0-9.12
			c-3.045,0-5.953,0-8.934,0c0-9.557,0-18.869,0-28.182l-0.067,0.062c2.945,0,5.889,0,9.073,0c0,6.035,0,11.975,0,18.123
			c18.907,0,37.579,0,56.51,0c0,3.51,0,6.81,0,10.114l0.066-0.063c-3.298,0-6.596,0-9.892,0c0,3.22,0,6.123,0,9.172
			c3.404,0,6.646,0,9.892,0L367.242,258.648z"/>
		<path fill-rule="evenodd" clip-rule="evenodd" d="M264.379,351.552c-6.287,0-12.577,0-19.011,0c0-3.02,0-5.929,0-9.008
			c3.212,0,6.374,0,9.702,0c0-3.075,0-5.98,0-9.145c-3.204,0-6.419,0-9.74,0c0-3.103,0-5.959,0-9.065c6.254,0,12.504,0,18.883,0
			c0-3.405,0-6.564,0-9.977c-2.843,0-5.756,0-8.94,0c0-3.249,0-6.252,0-9.255l-0.066,0.063c9.069,0,18.143,0,27.182,0
			c0-6.271,0-12.217,0-18.326c-3.027,0-5.883,0-8.785,0c0-3.379,0-6.589,0-9.769c6.397,0,12.645,0,19.057,0c0,3.332,0,6.494,0,9.896
			c3.069,0,5.983,0,8.855,0c0,3.16,0,6.066,0,9.137c-3.029,0-5.889,0-8.981,0c0,9.45,0,18.731,0,27.982c-3.46,0-6.671,0-10.046,0
			c0-3.328,0-6.489,0-9.693c-3.077,0-5.984,0-8.858,0c0,6.396,0,12.642,0,19.052c3.027,0,5.885,0,8.983,0c0,3.077,0,5.988,0,9.001
			c3.5,0,6.749,0,10.002,0c0,3,0,6.006,0,9.11c-6.621,0-12.907,0-19.193,0l0.063,0.064c0-2.995,0-5.993,0-8.979
			c-3.22,0-6.12,0-9.172,0c0,3.097,0,6.038,0,8.979L264.379,351.552z"/>
		<path fill-rule="evenodd" clip-rule="evenodd" d="M207.905,305.098c-12.053,0-24.105,0-36.312,0c0-3.002,0-5.908,0-8.985
			c8.958,0,17.881,0,27.127,0c0-3.149,0-6.145,0.001-9.145c0.002-0.002-0.063,0.075-0.063,0.075c2.952,0,5.905,0,9.103,0
			c0-9.488,0-18.771,0-28.305c3.454,0,6.671,0,10.047,0c0-6.44,0-12.634,0-19.006c6.109,0,12.051,0,18.266,0
			c0,3.254,0,6.563,0,9.869l0.068-0.063c-2.997,0-5.992,0-8.981,0c0,3.22,0,6.123,0,9.172c3.1,0,6.04,0,8.981,0l-0.063-0.062
			c0,3.057,0,6.113,0,9.171l0.063-0.063c-6.029,0-12.058,0-18.087,0c0,3.219,0,6.122,0,9.172c6.136,0,12.112,0,18.087,0
			l-0.068-0.063c0,3.248,0,6.494,0,9.97c-6.021,0-11.956,0-18.216,0c0,3.225,0,6.224,0,9.221l0.068-0.062c-3.306,0-6.613,0-10.085,0
			c0,3.278,0,6.224,0,9.172L207.905,305.098z"/>
		<path fill-rule="evenodd" clip-rule="evenodd" d="M310.771,361.571c0,2.947,0,5.894,0,9.082c9.445,0,18.727,0,28.137,0
			c0,3.09,0,5.941,0,9.046c-2.839,0-5.749,0-8.898,0c0,6.487,0,12.733,0,19.116c-6.489,0-12.733,0-19.092,0c0-3.229,0-6.386,0-9.793
			c2.891,0,5.799,0,8.852,0c0-3.149,0-6.055,0-9.08c-8.988,0-17.906,0-27.077,0c0,2.871,0,5.779,0,8.956c-3.546,0-6.853,0-10.157,0
			l0.062,0.067c0-3.003,0-6.006,0-9.17c-3.28,0-6.227,0-9.173,0l0.063,0.06c0-6.093,0-12.188,0-18.282l-0.063,0.064
			c3.004,0,6.005,0,9.25,0c0,3.182,0,6.093,0,8.951c3.406,0,6.563,0,9.967,0c0-3.027,0-5.94,0-8.951c6.231,0,12.212,0,18.194,0
			L310.771,361.571z"/>
		<path fill-rule="evenodd" clip-rule="evenodd" d="M385.529,258.709c0-6.286,0-12.573,0-19.008c6.353,0,12.6,0,18.97,0
			c0,12.309,0,24.571,0,37.015c-6.204,0-12.45,0-18.97,0c0-2.952,0-5.956,0-8.959l-0.067,0.063c2.995,0,5.99,0,8.98,0
			c0-3.221,0-6.12,0-9.171c-3.1,0-6.04,0-8.98,0L385.529,258.709z"/>
		<path fill-rule="evenodd" clip-rule="evenodd" d="M376.35,379.796c0,6.278,0,12.563,0,19c-12.403,0-24.712,0-37.165,0
			c0-3.204,0-6.415,0-9.791c2.908,0,5.765,0,8.861,0c0-3.064,0-5.976,0-9.149c3.241,0,6.244,0,9.247,0l-0.067-0.06
			c0,2.993,0,5.988,0,8.979c3.524,0,6.726,0,10.083,0c0-3.1,0-6.038,0-8.979l-0.064,0.06c3.058,0,6.115,0,9.175,0L376.35,379.796z"
			/>
		<path fill-rule="evenodd" clip-rule="evenodd" d="M394.567,342.449c0,9.307,0,18.617,0,28.165c3.335,0,6.547,0,9.904,0
			c0,3.146,0,6.047,0,9.182c-9.396,0-18.759,0-28.122,0l0.069,0.06c0-3.06,0-6.112,0-9.17l-0.064,0.06c2.998,0,5.998,0,9.219,0
			c0-9.594,0-18.865,0-28.233c3.175,0,6.117,0,9.063,0L394.567,342.449z"/>
		<path fill-rule="evenodd" clip-rule="evenodd" d="M264.379,379.791c-2.944,0-5.889,0-9.066,0c0,6.402,0,12.646,0,19.02
			c-3.441,0-6.647,0-9.975,0c0-9.331,0-18.6,0-28.035c3.252,0,6.409,0,9.806,0c0-3.06,0-5.971,0-9.135c3.237,0,6.235,0,9.235,0
			l-0.063-0.067c0,6.095,0,12.189,0,18.282L264.379,379.791z"/>
		<path fill-rule="evenodd" clip-rule="evenodd" d="M255.274,296.055c0-6.285,0-12.572,0-19.19c-6.515,0-12.858,0-19.2,0
			l0.068,0.063c0-3.058,0-6.116,0-9.172l-0.063,0.063c9.368,0,18.737,0,28.115,0c0,9.521,0,18.795,0,28.174
			c-3.097,0-6.042,0-8.986,0L255.274,296.055z"/>
		<path fill-rule="evenodd" clip-rule="evenodd" d="M189.693,258.704c0-2.947,0-5.893,0-9.076c-6.116,0-12.057,0-18.124,0
			c0-3.393,0-6.55,0-9.892c8.91,0,17.881,0,27.024,0c0,6.155,0,12.396,0,18.902c-2.964,0-5.965,0-8.965,0L189.693,258.704z"/>
		<path fill-rule="evenodd" clip-rule="evenodd" d="M217.858,296.055c5.967,0,11.935,0,18.077,0c0,2.956,0,5.856,0,8.996
			c-2.845,0-5.749,0-8.972,0c0,3.231,0,6.224,0,9.217l0.064-0.064c-6.285,0-12.567,0-19.123,0c0-3.1,0-6.103,0-9.105l-0.063,0.067
			c3.307,0,6.612,0,10.085,0c0-3.278,0-6.227,0-9.172L217.858,296.055z"/>
		<path fill-rule="evenodd" clip-rule="evenodd" d="M198.659,314.399c0,3.32,0,6.475,0,9.745c-9.021,0-17.94,0-27.039,0
			c0-3.169,0-6.375,0-9.745C180.539,314.399,189.511,314.399,198.659,314.399z"/>
		<path fill-rule="evenodd" clip-rule="evenodd" d="M282.536,388.898c0,3.248,0,6.497,0,9.899c-6.035,0-11.972,0-18.157,0
			c0-6.341,0-12.674,0-19.007l-0.063,0.064c3.058,0,6.115,0,9.172,0l-0.063-0.06c0,2.998,0,5.998,0,9.17c3.28,0,6.225,0,9.173,0
			L282.536,388.898z"/>
		<path fill-rule="evenodd" clip-rule="evenodd" d="M385.46,305.162c3.055,0.003,6.114,0.008,9.169,0.011l-0.062-0.065
			c0,9.429,0,18.863,0,28.292l0.069-0.063c-3.005,0-6.008,0-9.11,0c0-9.595,0-18.915,0-28.234L385.46,305.162z"/>
		<path fill-rule="evenodd" clip-rule="evenodd" d="M189.629,258.638c0,2.941,0,5.884,0,9.064c-2.985,0-5.893,0-9.121,0
			c0,3.23,0,6.225,0,9.221l0.064-0.064c-2.942,0-5.886,0-8.981,0c0-6.033,0-11.966,0-18.154c6.043,0,12.072,0,18.102,0
			L189.629,258.638z"/>
		<path fill-rule="evenodd" clip-rule="evenodd" d="M320.08,212.317c3.286,0,6.44,0,9.724,0c0,6.03,0,11.965,0,18.013
			c-3.246,0-6.4,0-9.724,0C320.08,224.402,320.08,218.464,320.08,212.317z"/>
		<path fill-rule="evenodd" clip-rule="evenodd" d="M180.508,276.923c5.964,0,11.929,0,18.155,0c0,3.398,0,6.756-0.002,10.117
			c-0.002,0.003,0.063-0.074,0.061-0.072c-5.966,0.004-11.929,0.004-18.149,0.004c0-3.512,0-6.813,0-10.113L180.508,276.923z"/>
		<path fill-rule="evenodd" clip-rule="evenodd" d="M394.629,305.173c0-5.971,0-11.944,0-18.088c3.278,0,6.482,0,9.843,0
			c0,5.902,0,11.834,0,18.022c-3.303,0-6.606,0-9.904,0L394.629,305.173z"/>
		<path fill-rule="evenodd" clip-rule="evenodd" d="M394.753,389.042c3.346,0,6.5,0,9.759,0c0,3.267,0,6.416,0,9.739
			c-3.189,0-6.398,0-9.759,0C394.753,395.609,394.753,392.402,394.753,389.042z"/>
		<path fill-rule="evenodd" clip-rule="evenodd" d="M320.011,174.717c0-3.009,0-5.856,0-8.826c3.248,0,6.402,0,9.738,0
			c0,2.852,0,5.755,0,8.826C326.609,174.717,323.403,174.717,320.011,174.717z"/>
		<path fill-rule="evenodd" clip-rule="evenodd" d="M319.887,193.132c3.241,0,6.478,0,9.88,0c0,2.974,0,5.872,0,8.921
			c-3.174,0-6.376,0-9.817,0c0-3,0-5.992,0-8.986L319.887,193.132z"/>
		<path fill-rule="evenodd" clip-rule="evenodd" d="M376.29,277.061c0,3.299,0,6.45,0,9.728c-2.943,0-5.792,0-8.827,0
			c0-3.143,0-6.35,0-9.728C370.284,277.061,373.188,277.061,376.29,277.061z"/>
		<path fill-rule="evenodd" clip-rule="evenodd" d="M255.274,305.102c-3.245,0-6.488,0-9.895,0c0-2.99,0-5.891,0-9.048
			c3.295,0,6.596,0,9.895,0l-0.066-0.062c0,3.057,0,6.114,0,9.172L255.274,305.102z"/>
		<path fill-rule="evenodd" clip-rule="evenodd" d="M226.963,314.268c2.938,0,5.879,0,8.982,0c0,3.286,0,6.489,0,9.843
			c-2.87,0-5.769,0-8.917,0c0-3.311,0-6.609,0-9.907L226.963,314.268z"/>
		<path fill-rule="evenodd" clip-rule="evenodd" d="M394.567,333.399c3.246,0,6.489,0,9.895,0c0,2.992,0,5.891,0,9.05
			c-3.293,0-6.594,0-9.895,0l0.069,0.063c0-3.061,0-6.115,0-9.175L394.567,333.399z"/>
		<path fill-rule="evenodd" clip-rule="evenodd" d="M264.379,361.641c0-3.36,0-6.726,0-10.089l-0.063,0.067c3.058,0,6.115,0,9.172,0
			l-0.063-0.064c0,3.365,0,6.726,0,10.083l0.063-0.064c-3.058,0-6.115,0-9.172,0L264.379,361.641z"/>
		<path fill-rule="evenodd" clip-rule="evenodd" d="M376.491,258.553c-3.085,0.033-6.167,0.063-9.249,0.096l0.066,0.062
			c0-3.058,0-6.115,0-9.172l-0.066,0.063c2.936,0,5.874,0,9.189,0c0,3.055,0,6.038-0.003,9.024
			C376.424,258.627,376.491,258.553,376.491,258.553z"/>
		<path fill-rule="evenodd" clip-rule="evenodd" d="M236.074,249.601c3.061,0,6.121,0,9.181,0l-0.067-0.063c0,3.003,0,6.003,0,9.11
			c-3.215,0-6.162,0-9.109,0l0.063,0.062c0-3.058,0-6.115,0-9.172L236.074,249.601z"/>
		<path fill-rule="evenodd" clip-rule="evenodd" d="M319.949,193.068c-3.059,0-6.12-0.001-9.183-0.004l0.069,0.063
			c0-3.058,0-6.115,0-9.172l-0.069,0.063c2.948,0,5.896,0,9.12,0c0,3.108,0,6.111,0,9.114L319.949,193.068z"/>
		<path fill-rule="evenodd" clip-rule="evenodd" d="M385.529,267.757c-2.934,0-5.861,0-9.043,0c0-3.104,0-6.15,0.005-9.204
			c0,0-0.067,0.074-0.063,0.072c3.035,0.026,6.067,0.056,9.101,0.084l-0.067-0.061c0,3.057,0,6.113,0,9.171L385.529,267.757z"/>
		<path fill-rule="evenodd" clip-rule="evenodd" fill="#FFFFFF" d="M236.079,258.648c2.947,0,5.894,0,9.109,0
			c0-3.107,0-6.107,0-9.11c3.244,0,6.491,0,9.978,0c0,3.058,0,5.963,0,9.103c6.264,0,12.289,0,18.315,0c0,2.996,0,5.988,0,8.993
			c3.15,0,6.048,0,8.919,0c0-3.051,0-5.952,0-8.927c-3.104,0-6.044,0-8.983,0c0-6.28,0-12.559,0-19.076c6.4,0,12.642,0,19.208,0
			c0-6.266,0-12.295,0-18.325l-0.064,0.065c3.057-0.022,6.109-0.046,9.166-0.069c0,9.313,0,18.625,0,28.182c2.98,0,5.889,0,8.934,0
			c0,3.151,0,6.053,0,9.12c-5.946,0-11.832,0-17.896,0c0,3.058,0,5.963,0,9.1c12.257,0,24.562,0,37.198,0c0,3.225,0,6.224,0,9.225
			c-3.251,0-6.503,0-10.002,0c0,3.318,0,6.536,0,9.915c-3.1,0-5.955,0-9.053,0c0,18.553,0,36.942,0,55.602c-3.238,0-6.242,0-9.244,0
			l0.063,0.067c0-2.995,0-5.991,0-8.981c-3.221,0-6.122,0-9.174,0c0,3.098,0,6.04,0,8.981l0.064-0.067c-3.253,0-6.502,0-10.002,0
			c0-3.013,0-5.924,0-9.001c-3.099,0-5.956,0-8.983,0c0-6.41,0-12.656,0-19.052c2.874,0,5.781,0,8.858,0c0,3.204,0,6.365,0,9.693
			c3.375,0,6.586,0,10.046,0c0-9.251,0-18.532,0-27.982c3.093,0,5.952,0,8.981,0c0-3.07,0-5.977,0-9.137c-2.872,0-5.786,0-8.855,0
			c0-3.401,0-6.563,0-9.896c-6.412,0-12.66,0-19.057,0c0,3.18,0,6.39,0,9.769c2.901,0,5.757,0,8.785,0c0,6.109,0,12.055,0,18.326
			c-9.039,0-18.113,0-27.182,0c0-3.058,0-6.115,0-9.172c2.944,0,5.889,0,8.986,0c0-9.379,0-18.653,0-28.174
			c-9.378,0-18.747,0-28.115,0C236.079,264.762,236.079,261.706,236.079,258.648z"/>
		<path fill-rule="evenodd" clip-rule="evenodd" fill="#FFFFFF" d="M394.637,333.337c0,3.06,0,6.114,0,9.175
			c-2.946,0-5.889,0-9.063,0c0,9.368,0,18.64,0,28.233c-3.221,0-6.221,0-9.219,0c0-12.344,0-24.689,0-37.281
			c-2.971,0-5.881,0-9.038,0c0-6.579,0-12.915,0-19.249l-0.064,0.065c2.94,0,5.881,0,9.056,0c0-3.056,0-5.964,0-9.178
			c3.229,0,6.224,0,9.219,0c0,9.319,0,18.64,0,28.234C388.629,333.337,391.632,333.337,394.637,333.337z"/>
		<path fill-rule="evenodd" clip-rule="evenodd" fill="#FFFFFF" d="M330.094,324.361c9.081,0,17.999,0,27.04,0
			c0,9.021,0,17.939,0,27.042c-8.927,0-17.902,0-27.04,0C330.094,342.494,330.094,333.523,330.094,324.361z M348.105,333.514
			c-3.106,0-6.011,0-8.903,0c0,3.047,0,5.95,0,8.781c3.072,0,5.976,0,8.903,0C348.105,339.315,348.105,336.523,348.105,333.514z"/>
		<path fill-rule="evenodd" clip-rule="evenodd" fill="#FFFFFF" d="M273.424,361.638c0-3.357,0-6.718,0-10.083
			c6.286,0,12.572,0,19.193,0c0-3.104,0-6.11,0-9.11l-0.064,0.067c3.059,0,6.117,0,9.174,0l-0.063-0.067c0,2.94,0,5.884,0,9.063
			c3.047,0,5.953,0,9.172,0c0,3.534,0,6.833,0,10.131c-5.982,0-11.963,0-18.194,0c0,3.011,0,5.924,0,8.951c-3.403,0-6.561,0-9.967,0
			c0-2.858,0-5.77,0-8.951C279.43,361.638,276.428,361.638,273.424,361.638z"/>
		<path fill-rule="evenodd" clip-rule="evenodd" fill="#FFFFFF" d="M320,305.189c0-3.171,0-6.02,0-9.016c6.294,0,12.53,0,19.016,0
			c0,2.929,0,5.84,0,8.899c3.09,0,5.943,0,8.963,0c0,3.063,0,5.966,0,9.021c-5.911,0-11.847,0-18.026,0c0-2.929,0-5.839,0-8.904
			C326.558,305.189,323.405,305.189,320,305.189z"/>
		<path fill-rule="evenodd" clip-rule="evenodd" fill="#FFFFFF" d="M329.898,276.863c3.057,0,6.117,0,9.174,0
			c0,3.245,0,6.488,0,9.893c-3.052,0-5.953,0-9.174,0C329.898,283.461,329.898,280.163,329.898,276.863z"/>
		<path fill-rule="evenodd" clip-rule="evenodd" fill="#FFFFFF" d="M367.316,314.215c-3.241,0-6.484,0-9.893,0
			c0-2.978,0-5.876,0-8.931c3.172,0,6.376,0,9.828,0c0,3.005,0,6.001,0,8.996L367.316,314.215z"/>
		<path fill-rule="evenodd" clip-rule="evenodd" fill="#FFFFFF" d="M367.309,379.796c0,2.94,0,5.879,0,8.979
			c-3.357,0-6.559,0-10.083,0c0-2.99,0-5.985,0-8.979C360.586,379.796,363.948,379.796,367.309,379.796z"/>
		<path fill-rule="evenodd" clip-rule="evenodd" fill="#FFFFFF" d="M376.419,370.685c0,3.058,0,6.11,0,9.17c-3.06,0-6.117,0-9.175,0
			c0-2.945,0-5.889,0-9.17C370.413,370.685,373.414,370.685,376.419,370.685z"/>
		<path fill-rule="evenodd" clip-rule="evenodd" fill="#FFFFFF" d="M292.625,221.306c-3.334,0.024-6.67,0.048-10.006,0.072
			c-0.001-0.005,0.072,0.061,0.072,0.061c0-6.337,0-12.675,0-19.174c-3.191,0-6.045,0-9.065,0c0-3.063,0-5.966,0-9.024
			c6.217,0,12.456,0,18.935,0c0,9.398,0,18.764,0,28.131L292.625,221.306z"/>
		<path fill-rule="evenodd" clip-rule="evenodd" fill="#FFFFFF" d="M273.481,221.294c-2.945,0-5.889,0-9.074,0
			c0,6.117,0,12.058,0,18.125c-3.09,0-5.942,0-8.983,0c0-8.909,0-17.88,0-27.026c5.852,0,11.789,0,17.993,0c0,2.964,0,5.965,0,8.965
			L273.481,221.294z"/>
		<path fill-rule="evenodd" clip-rule="evenodd" fill="#FFFFFF" d="M310.836,183.955c0,3.058,0,6.115,0,9.172
			c-2.943,0-5.884,0-8.983,0c0-3.054,0-5.952,0-9.172C304.843,183.955,307.838,183.955,310.836,183.955z"/>
		<path fill-rule="evenodd" clip-rule="evenodd" fill="#FFFFFF" d="M273.417,174.905c2.939,0,5.879,0,8.983,0
			c0,2.978,0,5.879,0,8.93c-2.871,0-5.769,0-8.919,0c0-3.005,0-6,0-8.995L273.417,174.905z"/>
		<path fill-rule="evenodd" clip-rule="evenodd" fill="#FFFFFF" d="M273.417,221.359c3.09,0.023,6.179,0.05,9.271,0.078
			c0.002,0.001-0.071-0.064-0.07-0.06c0.002,2.928,0.002,5.856,0.002,8.922c-3.108,0-6.004,0-9.14,0c0-3.023,0-6.014,0-9.005
			L273.417,221.359z"/>
		<path fill-rule="evenodd" clip-rule="evenodd" fill="#FFFFFF" d="M394.438,221.235c-15.45,0-30.747,0-46.165,0
			c0-15.394,0-30.692,0-46.172c15.299,0,30.652,0,46.165,0C394.438,190.343,394.438,205.693,394.438,221.235z M385.393,184.148
			c-9.46,0-18.736,0-27.953,0c0,9.439,0,18.719,0,27.955c9.405,0,18.627,0,27.953,0
			C385.393,202.759,385.393,193.535,385.393,184.148z"/>
		<path fill-rule="evenodd" clip-rule="evenodd" fill="#FFFFFF" d="M226.899,342.638c0,15.464,0,30.763,0,46.179
			c-15.398,0-30.694,0-46.172,0c0-15.312,0-30.665,0-46.179C196.021,342.638,211.371,342.638,226.899,342.638z M189.763,379.669
			c9.443,0,18.72,0,27.955,0c0-9.436,0-18.714,0-27.966c-9.401,0-18.625,0-27.955,0
			C189.763,361.039,189.763,370.268,189.763,379.669z"/>
		<path fill-rule="evenodd" clip-rule="evenodd" fill="#FFFFFF" d="M180.73,174.961c15.394,0,30.689,0,46.13,0
			c0,15.426,0,30.774,0,46.249c-15.352,0-30.649,0-46.13,0C180.73,205.906,180.73,190.556,180.73,174.961z M217.731,212.123
			c0-9.461,0-18.74,0-27.955c-9.442,0-18.721,0-27.954,0c0,9.408,0,18.631,0,27.955
			C199.124,212.123,208.348,212.123,217.731,212.123z"/>
		<path fill-rule="evenodd" clip-rule="evenodd" fill="#FFFFFF" d="M367.309,249.538c0,3.058,0,6.115,0,9.172
			c-3.246,0-6.487,0-9.892,0c0-3.05,0-5.952,0-9.172C360.713,249.538,364.011,249.538,367.309,249.538z"/>
		<path fill-rule="evenodd" clip-rule="evenodd" fill="#FFFFFF" d="M339.08,258.651c-2.94,0-5.879,0-8.983,0c0-2.977,0-5.877,0-8.93
			c2.868,0,5.767,0,8.919,0c0,3.007,0,6.002,0,8.996L339.08,258.651z"/>
		<path fill-rule="evenodd" clip-rule="evenodd" fill="#FFFFFF" d="M273.488,351.619c-3.058,0-6.115,0-9.172,0
			c0-2.94,0-5.882,0-8.979c3.053,0,5.952,0,9.172,0C273.488,345.626,273.488,348.624,273.488,351.619z"/>
		<path fill-rule="evenodd" clip-rule="evenodd" fill="#FFFFFF" d="M236.143,267.756c0,3.056,0,6.114,0,9.172
			c-5.976,0-11.951,0-18.087,0c0-3.05,0-5.953,0-9.172C224.084,267.756,230.113,267.756,236.143,267.756z"/>
		<path fill-rule="evenodd" clip-rule="evenodd" fill="#FFFFFF" d="M217.926,295.993c0,2.945,0,5.894,0,9.172
			c-3.473,0-6.778,0-10.085,0c0-2.948,0-5.894,0-9.172C211.313,295.993,214.621,295.993,217.926,295.993z"/>
		<path fill-rule="evenodd" clip-rule="evenodd" fill="#FFFFFF" d="M236.143,249.538c0,3.058,0,6.115,0,9.172
			c-2.941,0-5.881,0-8.981,0c0-3.05,0-5.952,0-9.172C230.151,249.538,233.146,249.538,236.143,249.538z"/>
		<path fill-rule="evenodd" clip-rule="evenodd" fill="#FFFFFF" d="M264.315,361.573c3.058,0,6.115,0,9.172,0
			c0,6.095,0,12.189,0,18.282c-3.058,0-6.115,0-9.172,0C264.315,373.763,264.315,367.668,264.315,361.573z"/>
		<path fill-rule="evenodd" clip-rule="evenodd" fill="#FFFFFF" d="M282.598,388.966c-2.948,0-5.894,0-9.173,0
			c0-3.172,0-6.172,0-9.17c2.947,0,5.894,0,9.173,0C282.598,382.96,282.598,385.963,282.598,388.966z"/>
		<path fill-rule="evenodd" clip-rule="evenodd" fill="#FFFFFF" d="M385.462,267.819c0-3.058,0-6.114,0-9.171c2.94,0,5.881,0,8.98,0
			c0,3.051,0,5.95,0,9.171C391.452,267.819,388.457,267.819,385.462,267.819z"/>
		<path fill-rule="evenodd" clip-rule="evenodd" d="M273.417,258.706c2.939,0,5.879,0,8.983,0c0,2.976,0,5.876,0,8.927
			c-2.871,0-5.769,0-8.919,0c0-3.005,0-5.998,0-8.993L273.417,258.706z"/>
		<path fill-rule="evenodd" clip-rule="evenodd" d="M301.727,342.512c-3.057,0-6.115,0-9.174,0c0-2.941,0-5.884,0-8.981
			c3.052,0,5.953,0,9.174,0C301.727,336.52,301.727,339.517,301.727,342.512z"/>
		<path fill-rule="evenodd" clip-rule="evenodd" d="M348.105,333.514c0,3.01,0,5.802,0,8.781c-2.928,0-5.831,0-8.903,0
			c0-2.831,0-5.734,0-8.781C342.095,333.514,344.999,333.514,348.105,333.514z"/>
		<path fill-rule="evenodd" clip-rule="evenodd" d="M385.393,184.148c0,9.387,0,18.611,0,27.955c-9.326,0-18.548,0-27.953,0
			c0-9.235,0-18.516,0-27.955C366.656,184.148,375.933,184.148,385.393,184.148z"/>
		<path fill-rule="evenodd" clip-rule="evenodd" d="M189.763,379.669c0-9.4,0-18.63,0-27.966c9.33,0,18.554,0,27.955,0
			c0,9.252,0,18.53,0,27.966C208.483,379.669,199.206,379.669,189.763,379.669z"/>
		<path fill-rule="evenodd" clip-rule="evenodd" d="M217.731,212.123c-9.383,0-18.607,0-27.954,0c0-9.324,0-18.546,0-27.955
			c9.233,0,18.512,0,27.954,0C217.731,193.383,217.731,202.662,217.731,212.123z"/>
	</g>
</g>
</svg>
